<mxfile host="app.diagrams.net" modified="2023-10-27T17:34:51.034Z" agent="Mozilla/5.0 (Windows NT 10.0; Win64; x64) AppleWebKit/537.36 (KHTML, like Gecko) Chrome/118.0.0.0 Safari/537.36" etag="paxztG_n3v6Jyg9K39hG" version="22.0.8" type="google">
  <diagram name="Page-1" id="HDEMP7Y1C1orDQiPb-PO">
    <mxGraphModel dx="1034" dy="424" grid="1" gridSize="10" guides="1" tooltips="1" connect="1" arrows="1" fold="1" page="1" pageScale="1" pageWidth="827" pageHeight="1169" math="0" shadow="0">
      <root>
        <mxCell id="0" />
        <mxCell id="1" parent="0" />
        <mxCell id="vBaS456zodQ8CDd8cytp-1" value="Salle de Serveur" style="rounded=0;whiteSpace=wrap;html=1;" vertex="1" parent="1">
          <mxGeometry x="670" y="30" width="120" height="60" as="geometry" />
        </mxCell>
        <mxCell id="vBaS456zodQ8CDd8cytp-2" value="&lt;font style=&quot;vertical-align: inherit;&quot;&gt;&lt;font style=&quot;vertical-align: inherit;&quot;&gt;Bureaux 1&lt;/font&gt;&lt;/font&gt;" style="ellipse;whiteSpace=wrap;html=1;" vertex="1" parent="1">
          <mxGeometry x="20" y="30" width="120" height="80" as="geometry" />
        </mxCell>
        <mxCell id="vBaS456zodQ8CDd8cytp-3" value="&lt;font style=&quot;vertical-align: inherit;&quot;&gt;&lt;font style=&quot;vertical-align: inherit;&quot;&gt;Bureaux 2&lt;/font&gt;&lt;/font&gt;" style="ellipse;whiteSpace=wrap;html=1;" vertex="1" parent="1">
          <mxGeometry x="30" y="240" width="120" height="80" as="geometry" />
        </mxCell>
        <mxCell id="vBaS456zodQ8CDd8cytp-4" value="&lt;font style=&quot;vertical-align: inherit;&quot;&gt;&lt;font style=&quot;vertical-align: inherit;&quot;&gt;Bureaux 3&lt;/font&gt;&lt;/font&gt;" style="ellipse;whiteSpace=wrap;html=1;" vertex="1" parent="1">
          <mxGeometry x="220" y="30" width="120" height="80" as="geometry" />
        </mxCell>
        <mxCell id="vBaS456zodQ8CDd8cytp-5" value="&lt;font style=&quot;vertical-align: inherit;&quot;&gt;&lt;font style=&quot;vertical-align: inherit;&quot;&gt;Bureaux 4&lt;/font&gt;&lt;/font&gt;" style="ellipse;whiteSpace=wrap;html=1;" vertex="1" parent="1">
          <mxGeometry x="210" y="240" width="120" height="80" as="geometry" />
        </mxCell>
        <mxCell id="vBaS456zodQ8CDd8cytp-6" value="&lt;font style=&quot;vertical-align: inherit;&quot;&gt;&lt;font style=&quot;vertical-align: inherit;&quot;&gt;Bureaux 5&lt;/font&gt;&lt;/font&gt;" style="ellipse;whiteSpace=wrap;html=1;" vertex="1" parent="1">
          <mxGeometry x="410" y="30" width="120" height="80" as="geometry" />
        </mxCell>
        <mxCell id="vBaS456zodQ8CDd8cytp-7" value="Garage" style="whiteSpace=wrap;html=1;aspect=fixed;" vertex="1" parent="1">
          <mxGeometry x="560" y="220" width="80" height="80" as="geometry" />
        </mxCell>
        <mxCell id="vBaS456zodQ8CDd8cytp-8" value="" style="endArrow=none;html=1;rounded=0;exitX=0;exitY=0.75;exitDx=0;exitDy=0;entryX=1;entryY=0;entryDx=0;entryDy=0;" edge="1" parent="1" source="vBaS456zodQ8CDd8cytp-1" target="vBaS456zodQ8CDd8cytp-6">
          <mxGeometry width="50" height="50" relative="1" as="geometry">
            <mxPoint x="390" y="150" as="sourcePoint" />
            <mxPoint x="440" y="100" as="targetPoint" />
          </mxGeometry>
        </mxCell>
        <mxCell id="vBaS456zodQ8CDd8cytp-9" value="" style="endArrow=none;html=1;rounded=0;exitX=0;exitY=0.25;exitDx=0;exitDy=0;entryX=0.5;entryY=0;entryDx=0;entryDy=0;" edge="1" parent="1" source="vBaS456zodQ8CDd8cytp-21" target="vBaS456zodQ8CDd8cytp-4">
          <mxGeometry width="50" height="50" relative="1" as="geometry">
            <mxPoint x="280" y="95" as="sourcePoint" />
            <mxPoint x="330" y="45" as="targetPoint" />
          </mxGeometry>
        </mxCell>
        <mxCell id="vBaS456zodQ8CDd8cytp-10" value="" style="endArrow=none;html=1;rounded=0;exitX=0;exitY=0;exitDx=0;exitDy=0;" edge="1" parent="1" source="vBaS456zodQ8CDd8cytp-1">
          <mxGeometry width="50" height="50" relative="1" as="geometry">
            <mxPoint x="40" y="80" as="sourcePoint" />
            <mxPoint x="90" y="30" as="targetPoint" />
          </mxGeometry>
        </mxCell>
        <mxCell id="vBaS456zodQ8CDd8cytp-11" value="" style="endArrow=none;html=1;rounded=0;exitX=0.5;exitY=0;exitDx=0;exitDy=0;" edge="1" parent="1" source="vBaS456zodQ8CDd8cytp-3">
          <mxGeometry width="50" height="50" relative="1" as="geometry">
            <mxPoint x="620" y="140" as="sourcePoint" />
            <mxPoint x="670" y="90" as="targetPoint" />
          </mxGeometry>
        </mxCell>
        <mxCell id="vBaS456zodQ8CDd8cytp-12" value="" style="endArrow=none;html=1;rounded=0;exitX=0.5;exitY=0;exitDx=0;exitDy=0;" edge="1" parent="1" source="vBaS456zodQ8CDd8cytp-5">
          <mxGeometry width="50" height="50" relative="1" as="geometry">
            <mxPoint x="650" y="140" as="sourcePoint" />
            <mxPoint x="700" y="90" as="targetPoint" />
          </mxGeometry>
        </mxCell>
        <mxCell id="vBaS456zodQ8CDd8cytp-13" value="" style="image;html=1;image=img/lib/clip_art/networking/Router_Icon_128x128.png" vertex="1" parent="1">
          <mxGeometry x="680" y="20" width="30" height="50" as="geometry" />
        </mxCell>
        <mxCell id="vBaS456zodQ8CDd8cytp-14" value="" style="image;html=1;image=img/lib/clip_art/networking/Switch_128x128.png" vertex="1" parent="1">
          <mxGeometry x="750" y="25" width="40" height="40" as="geometry" />
        </mxCell>
        <mxCell id="vBaS456zodQ8CDd8cytp-15" value="" style="image;html=1;image=img/lib/clip_art/computers/Server_Tower_128x128.png" vertex="1" parent="1">
          <mxGeometry x="690" y="70" width="80" height="20" as="geometry" />
        </mxCell>
        <mxCell id="vBaS456zodQ8CDd8cytp-16" value="" style="sketch=0;pointerEvents=1;shadow=0;dashed=0;html=1;strokeColor=none;fillColor=#505050;labelPosition=center;verticalLabelPosition=bottom;verticalAlign=top;outlineConnect=0;align=center;shape=mxgraph.office.devices.workstation_pc;" vertex="1" parent="1">
          <mxGeometry x="50" y="35" width="30" height="20" as="geometry" />
        </mxCell>
        <mxCell id="vBaS456zodQ8CDd8cytp-17" value="" style="sketch=0;pointerEvents=1;shadow=0;dashed=0;html=1;strokeColor=none;fillColor=#505050;labelPosition=center;verticalLabelPosition=bottom;verticalAlign=top;outlineConnect=0;align=center;shape=mxgraph.office.devices.workstation_pc;" vertex="1" parent="1">
          <mxGeometry x="251" y="35" width="19" height="18.5" as="geometry" />
        </mxCell>
        <mxCell id="vBaS456zodQ8CDd8cytp-18" value="" style="sketch=0;pointerEvents=1;shadow=0;dashed=0;html=1;strokeColor=none;fillColor=#505050;labelPosition=center;verticalLabelPosition=bottom;verticalAlign=top;outlineConnect=0;align=center;shape=mxgraph.office.devices.workstation_pc;" vertex="1" parent="1">
          <mxGeometry x="55" y="245.5" width="25" height="24.5" as="geometry" />
        </mxCell>
        <mxCell id="vBaS456zodQ8CDd8cytp-19" value="" style="sketch=0;pointerEvents=1;shadow=0;dashed=0;html=1;strokeColor=none;fillColor=#505050;labelPosition=center;verticalLabelPosition=bottom;verticalAlign=top;outlineConnect=0;align=center;shape=mxgraph.office.devices.workstation_pc;" vertex="1" parent="1">
          <mxGeometry x="230" y="245.5" width="20" height="24.5" as="geometry" />
        </mxCell>
        <mxCell id="vBaS456zodQ8CDd8cytp-20" value="" style="endArrow=none;html=1;rounded=0;exitX=0;exitY=0.25;exitDx=0;exitDy=0;entryX=0.5;entryY=0;entryDx=0;entryDy=0;" edge="1" parent="1" source="vBaS456zodQ8CDd8cytp-1" target="vBaS456zodQ8CDd8cytp-21">
          <mxGeometry width="50" height="50" relative="1" as="geometry">
            <mxPoint x="670" y="45" as="sourcePoint" />
            <mxPoint x="280" y="30" as="targetPoint" />
          </mxGeometry>
        </mxCell>
        <mxCell id="vBaS456zodQ8CDd8cytp-21" value="" style="sketch=0;pointerEvents=1;shadow=0;dashed=0;html=1;strokeColor=none;fillColor=#505050;labelPosition=center;verticalLabelPosition=bottom;verticalAlign=top;outlineConnect=0;align=center;shape=mxgraph.office.devices.workstation_pc;" vertex="1" parent="1">
          <mxGeometry x="440" y="31.5" width="20" height="28.5" as="geometry" />
        </mxCell>
        <mxCell id="vBaS456zodQ8CDd8cytp-22" value="" style="image;html=1;image=img/lib/clip_art/computers/IBM_Tablet_128x128.png" vertex="1" parent="1">
          <mxGeometry x="95" y="35" width="25" height="33.5" as="geometry" />
        </mxCell>
        <mxCell id="vBaS456zodQ8CDd8cytp-23" value="" style="image;html=1;image=img/lib/clip_art/computers/IBM_Tablet_128x128.png" vertex="1" parent="1">
          <mxGeometry x="280" y="35" width="30" height="25" as="geometry" />
        </mxCell>
        <mxCell id="vBaS456zodQ8CDd8cytp-24" value="" style="image;html=1;image=img/lib/clip_art/computers/IBM_Tablet_128x128.png" vertex="1" parent="1">
          <mxGeometry x="470" y="30" width="30" height="30" as="geometry" />
        </mxCell>
        <mxCell id="vBaS456zodQ8CDd8cytp-25" value="" style="image;html=1;image=img/lib/clip_art/computers/Fujitsu_Tablet_128x128.png" vertex="1" parent="1">
          <mxGeometry x="105" y="245.5" width="35" height="25" as="geometry" />
        </mxCell>
        <mxCell id="vBaS456zodQ8CDd8cytp-26" value="" style="image;html=1;image=img/lib/clip_art/computers/Fujitsu_Tablet_128x128.png" vertex="1" parent="1">
          <mxGeometry x="280" y="248" width="30" height="24" as="geometry" />
        </mxCell>
        <mxCell id="vBaS456zodQ8CDd8cytp-27" value="" style="image;html=1;image=img/lib/clip_art/networking/Switch_128x128.png" vertex="1" parent="1">
          <mxGeometry x="25" y="70" width="30" height="20" as="geometry" />
        </mxCell>
        <mxCell id="vBaS456zodQ8CDd8cytp-28" value="" style="image;html=1;image=img/lib/clip_art/networking/Switch_128x128.png" vertex="1" parent="1">
          <mxGeometry x="230" y="70" width="30" height="30" as="geometry" />
        </mxCell>
        <mxCell id="vBaS456zodQ8CDd8cytp-29" value="" style="image;html=1;image=img/lib/clip_art/networking/Switch_128x128.png" vertex="1" parent="1">
          <mxGeometry x="415" y="65" width="25" height="40" as="geometry" />
        </mxCell>
        <mxCell id="vBaS456zodQ8CDd8cytp-30" value="" style="image;html=1;image=img/lib/clip_art/networking/Switch_128x128.png" vertex="1" parent="1">
          <mxGeometry x="38" y="280" width="32" height="30" as="geometry" />
        </mxCell>
        <mxCell id="vBaS456zodQ8CDd8cytp-31" value="" style="image;html=1;image=img/lib/clip_art/networking/Switch_128x128.png" vertex="1" parent="1">
          <mxGeometry x="221" y="280" width="29" height="30" as="geometry" />
        </mxCell>
        <mxCell id="vBaS456zodQ8CDd8cytp-32" value="" style="shape=image;html=1;verticalAlign=top;verticalLabelPosition=bottom;labelBackgroundColor=#ffffff;imageAspect=0;aspect=fixed;image=https://cdn0.iconfinder.com/data/icons/luisance_pack/128/ordinateur_portable_eteint.png" vertex="1" parent="1">
          <mxGeometry x="256.5" y="76.75" width="31.5" height="31.5" as="geometry" />
        </mxCell>
        <mxCell id="vBaS456zodQ8CDd8cytp-33" value="" style="shape=image;html=1;verticalAlign=top;verticalLabelPosition=bottom;labelBackgroundColor=#ffffff;imageAspect=0;aspect=fixed;image=https://cdn0.iconfinder.com/data/icons/luisance_pack/128/ordinateur_portable_eteint.png" vertex="1" parent="1">
          <mxGeometry x="50" y="75" width="35" height="35" as="geometry" />
        </mxCell>
        <mxCell id="vBaS456zodQ8CDd8cytp-34" value="" style="shape=image;html=1;verticalAlign=top;verticalLabelPosition=bottom;labelBackgroundColor=#ffffff;imageAspect=0;aspect=fixed;image=https://cdn0.iconfinder.com/data/icons/luisance_pack/128/ordinateur_portable_eteint.png" vertex="1" parent="1">
          <mxGeometry x="440" y="71.5" width="38.5" height="38.5" as="geometry" />
        </mxCell>
        <mxCell id="vBaS456zodQ8CDd8cytp-35" value="" style="shape=image;html=1;verticalAlign=top;verticalLabelPosition=bottom;labelBackgroundColor=#ffffff;imageAspect=0;aspect=fixed;image=https://cdn0.iconfinder.com/data/icons/luisance_pack/128/ordinateur_portable_eteint.png" vertex="1" parent="1">
          <mxGeometry x="60.5" y="282" width="39" height="39" as="geometry" />
        </mxCell>
        <mxCell id="vBaS456zodQ8CDd8cytp-36" value="" style="shape=image;html=1;verticalAlign=top;verticalLabelPosition=bottom;labelBackgroundColor=#ffffff;imageAspect=0;aspect=fixed;image=https://cdn0.iconfinder.com/data/icons/luisance_pack/128/ordinateur_portable_eteint.png" vertex="1" parent="1">
          <mxGeometry x="250" y="282" width="38" height="38" as="geometry" />
        </mxCell>
        <mxCell id="vBaS456zodQ8CDd8cytp-37" value="" style="image;html=1;image=img/lib/clip_art/networking/Wireless_Router_N_128x128.png" vertex="1" parent="1">
          <mxGeometry x="92.5" y="71.25" width="27.5" height="27.5" as="geometry" />
        </mxCell>
        <mxCell id="vBaS456zodQ8CDd8cytp-38" value="" style="image;html=1;image=img/lib/clip_art/networking/Wireless_Router_N_128x128.png" vertex="1" parent="1">
          <mxGeometry x="478.5" y="71.5" width="40" height="30" as="geometry" />
        </mxCell>
        <mxCell id="vBaS456zodQ8CDd8cytp-39" value="" style="image;html=1;image=img/lib/clip_art/networking/Wireless_Router_N_128x128.png" vertex="1" parent="1">
          <mxGeometry x="288" y="65" width="30" height="40" as="geometry" />
        </mxCell>
        <mxCell id="vBaS456zodQ8CDd8cytp-40" value="" style="image;html=1;image=img/lib/clip_art/networking/Wireless_Router_N_128x128.png" vertex="1" parent="1">
          <mxGeometry x="105" y="280" width="35" height="30" as="geometry" />
        </mxCell>
        <mxCell id="vBaS456zodQ8CDd8cytp-41" value="" style="image;html=1;image=img/lib/clip_art/networking/Wireless_Router_N_128x128.png" vertex="1" parent="1">
          <mxGeometry x="288" y="272" width="32" height="40" as="geometry" />
        </mxCell>
      </root>
    </mxGraphModel>
  </diagram>
</mxfile>
